<svg width="735" height="735" viewBox="0 0 735 735" fill="none" xmlns="http://www.w3.org/2000/svg">
<path d="M126.5 242.584C126.5 231.538 135.454 222.584 146.5 222.584H156.5C167.546 222.584 176.5 231.538 176.5 242.584V302.584H126.5V242.584Z" fill="black"/>
<path d="M198.5 112.584C198.5 101.538 207.454 92.584 218.5 92.584H228.5C239.546 92.584 248.5 101.538 248.5 112.584V302.584H198.5V112.584Z" fill="black"/>
<path d="M270.5 182.584C270.5 171.538 279.454 162.584 290.5 162.584H300.5C311.546 162.584 320.5 171.538 320.5 182.584V302.584H270.5V182.584Z" fill="black"/>
<path d="M342.5 22.584C342.5 11.5383 351.454 2.58398 362.5 2.58398H372.5C383.546 2.58398 392.5 11.5383 392.5 22.584V302.584H342.5V22.584Z" fill="black"/>
<path d="M414.5 182.584C414.5 171.538 423.454 162.584 434.5 162.584H444.5C455.546 162.584 464.5 171.538 464.5 182.584V302.584H414.5V182.584Z" fill="black"/>
<path d="M486.5 112.584C486.5 101.538 495.454 92.584 506.5 92.584H516.5C527.546 92.584 536.5 101.538 536.5 112.584V302.584H486.5V112.584Z" fill="black"/>
<path d="M558.5 242.584C558.5 231.538 567.454 222.584 578.5 222.584H588.5C599.546 222.584 608.5 231.538 608.5 242.584V302.584H558.5V242.584Z" fill="black"/>
<g opacity="0.3">
<path d="M126.5 322.416H176.5V361.416C176.5 372.461 167.546 381.416 156.5 381.416H146.5C135.454 381.416 126.5 372.461 126.5 361.416V322.416Z" fill="black"/>
<path d="M198.5 322.416H248.5V456.416C248.5 467.461 239.546 476.416 228.5 476.416H218.5C207.454 476.416 198.5 467.461 198.5 456.416V322.416Z" fill="black"/>
<path d="M270.5 322.416H320.5V405.416C320.5 416.461 311.546 425.416 300.5 425.416H290.5C279.454 425.416 270.5 416.461 270.5 405.416V322.416Z" fill="black"/>
<path d="M342.5 322.416H392.5V522.416C392.5 533.461 383.546 542.416 372.5 542.416H362.5C351.454 542.416 342.5 533.461 342.5 522.416V322.416Z" fill="black"/>
<path d="M414.5 322.416H464.5V405.416C464.5 416.461 455.546 425.416 444.5 425.416H434.5C423.454 425.416 414.5 416.461 414.5 405.416V322.416Z" fill="black"/>
<path d="M486.5 322.416H536.5V456.416C536.5 467.461 527.546 476.416 516.5 476.416H506.5C495.454 476.416 486.5 467.461 486.5 456.416V322.416Z" fill="black"/>
<path d="M558.5 322.416H608.5V361.416C608.5 372.461 599.546 381.416 588.5 381.416H578.5C567.454 381.416 558.5 372.461 558.5 361.416V322.416Z" fill="black"/>
</g>
<path d="M89.9273 714.416C89.2073 714.416 88.7273 713.936 88.7273 713.216V631.616C88.7273 630.896 89.2073 630.416 89.9273 630.416H108.167C108.887 630.416 109.367 630.896 109.367 631.616V696.536C109.367 697.136 109.727 697.496 110.327 697.496H136.247C136.967 697.496 137.447 697.976 137.447 698.696V713.216C137.447 713.936 136.967 714.416 136.247 714.416H89.9273ZM170.325 630.296C170.925 630.296 171.525 630.536 171.765 631.136L187.245 659.576C187.605 660.176 188.205 660.176 188.565 659.576L203.925 631.256C204.165 630.656 204.765 630.416 205.365 630.416H224.565C225.525 630.416 225.885 631.016 225.405 631.856L198.765 676.856C198.525 677.336 198.405 677.696 198.405 678.056V713.216C198.405 713.936 197.925 714.416 197.205 714.416H178.965C178.245 714.416 177.765 713.936 177.765 713.216V678.776C177.765 678.416 177.645 678.056 177.405 677.576L150.285 631.736C149.805 630.896 150.165 630.296 151.125 630.296H170.325ZM283.684 630.416C303.724 630.416 314.164 641.696 314.164 659.456C314.164 670.016 309.844 678.176 301.924 683.456C301.324 683.816 301.324 684.296 301.924 684.776C313.204 692.696 315.124 703.016 315.244 713.216C315.244 713.936 314.764 714.416 314.044 714.416H297.004C296.284 714.416 295.804 714.056 295.804 713.216C295.564 704.336 292.924 691.856 276.364 689.816C274.924 689.816 273.484 689.696 271.924 689.696C271.324 689.576 270.964 689.936 270.964 690.536V713.216C270.964 713.936 270.484 714.416 269.764 714.416H251.524C250.804 714.416 250.324 713.936 250.324 713.216V631.616C250.324 630.896 250.804 630.416 251.524 630.416H283.684ZM270.964 670.856C270.964 671.456 271.324 671.816 271.924 671.816H280.924C297.844 671.816 297.844 647.336 282.004 647.336H271.924C271.324 647.336 270.964 647.696 270.964 648.296V670.856ZM352.427 630.416H362.627V714.416H352.427V630.416ZM358.067 640.016V630.416H375.227C380.667 630.416 385.507 631.456 389.747 633.536C394.067 635.536 397.467 638.416 399.947 642.176C402.507 645.936 403.787 650.416 403.787 655.616C403.787 660.736 402.507 665.216 399.947 669.056C397.467 672.816 394.067 675.736 389.747 677.816C385.507 679.816 380.667 680.816 375.227 680.816H358.067V671.216H375.227C380.667 671.216 385.067 669.896 388.427 667.256C391.867 664.616 393.587 660.736 393.587 655.616C393.587 650.416 391.867 646.536 388.427 643.976C385.067 641.336 380.667 640.016 375.227 640.016H358.067ZM430.17 630.416H440.37V704.816H473.37V714.416H430.17V630.416ZM512.666 689.216L516.266 679.616H553.466L557.066 689.216H512.666ZM534.626 649.376L520.466 682.736L519.506 684.896L507.026 714.416H495.626L534.626 626.216L573.626 714.416H562.226L549.986 685.616L549.026 683.216L534.626 649.376ZM641.527 630.416H652.927L624.967 678.176V714.416H614.767V678.296L586.807 630.416H598.207L619.807 669.296L641.527 630.416Z" fill="black"/>
</svg>
